<?xml version="1.0" encoding="UTF-8" standalone="no"?>
<svg
   viewBox="0 0 168 168"
   id="vector"
   version="1.1"
   sodipodi:docname="ic_launcher.svg"
   inkscape:export-filename="vector.png"
   inkscape:export-xdpi="585.14001"
   inkscape:export-ydpi="585.14001"
   inkscape:version="1.2.2 (b0a8486541, 2022-12-01)"
   xmlns:inkscape="http://www.inkscape.org/namespaces/inkscape"
   xmlns:sodipodi="http://sodipodi.sourceforge.net/DTD/sodipodi-0.dtd"
   xmlns="http://www.w3.org/2000/svg"
   xmlns:svg="http://www.w3.org/2000/svg">
  <defs
     id="defs54" />
  <sodipodi:namedview
     id="namedview52"
     pagecolor="#ffffff"
     bordercolor="#000000"
     borderopacity="0.25"
     inkscape:showpageshadow="2"
     inkscape:pageopacity="0.0"
     inkscape:pagecheckerboard="0"
     inkscape:deskcolor="#d1d1d1"
     showgrid="false"
     inkscape:zoom="6.1130952"
     inkscape:cx="46.457644"
     inkscape:cy="84.163583"
     inkscape:window-width="3836"
     inkscape:window-height="2134"
     inkscape:window-x="0"
     inkscape:window-y="0"
     inkscape:window-maximized="1"
     inkscape:current-layer="vector" />
  <g
     id="group"
     transform="scale(1.4259281)">
    <path
       id="path"
       d="M 117.792,67.573 83.41,33.221 33.213,83.419 67.572,117.792 h 38.383 c 6.557,0 11.836,-5.279 11.836,-11.836 z"
       fill="#226693"
       stroke-width="27.3394" />
    <path
       id="path_1"
       d="M 13.091,0 C 5.839,0 0,5.839 0,13.091 v 91.636 c 0,7.253 5.839,13.091 13.091,13.091 L 67.573,117.792 33.213,83.419 83.41,33.221 117.792,67.573 117.818,13.091 C 117.821,5.839 111.98,0 104.727,0 Z"
       fill="#2a7fb8"
       stroke-width="30.2362" />
  </g>
  <g
     id="group_1"
     transform="matrix(1.4259281,0,0,1.4259281,7.3125112,7.3125113)">
    <path
       id="path_2"
       d="M 54,54 M 18,54 C 18,44.456 21.795,35.293 28.544,28.544 35.293,21.795 44.456,18 54,18 63.544,18 72.707,21.795 79.456,28.544 86.205,35.293 90,44.456 90,54 90,63.544 86.205,72.707 79.456,79.456 72.707,86.205 63.544,90 54,90 44.456,90 35.293,86.205 28.544,79.456 21.795,72.707 18,63.544 18,54"
       fill="#e74a43"
       stroke-width="0.472147" />
    <path
       id="path_3"
       d="M 39.814,54.602 C 39.909,31.751 38.415,32.605 58.158,44.112 77.901,55.62 77.908,53.899 58.07,65.243 38.233,76.587 39.72,77.453 39.814,54.602 Z"
       fill="#ffffff"
       stroke-width="6.10987" />
  </g>
</svg>
